<svg xmlns="http://www.w3.org/2000/svg" shape-rendering="geometricPrecision" text-rendering="geometricPrecision" image-rendering="optimizeQuality" fill-rule="evenodd" clip-rule="evenodd" viewBox="0 0 512 446.201"><g fill-rule="nonzero"><path d="M121.683 218.8c-2.858-2.857-2.629-7.723.512-10.864 3.14-3.141 8.007-3.37 10.864-.512l174.464 174.467c2.857 2.857 2.628 7.724-.513 10.865-3.141 3.14-8.007 3.369-10.864.512L121.683 218.8z"/><path d="M304.071 407.141l-179.668 38.621c-7.248 1.536-14.411-1.059-19.04-6.192l-83.521-83.944c-30.268-30.425-28.351-42.165 1.249-71.674L297.755 10.135c12.341-14.197 37.43-13.072 49.401.83l151.95 152.417c16.511 16.57 17.726 36.066.38 53.365L314.024 401.733a19.918 19.918 0 01-9.958 5.387l.005.021z"/><path fill="#E3504D" d="M299.918 387.549l-179.669 38.622-95.182-95.668c-5.677-5.677-5.677-14.598 0-20.274l287.08-286.195c5.185-5.86 14.445-5.353 19.791 0l155.611 156.092c5.679 5.68 5.676 14.591 0 20.274L299.918 387.549z"/><path fill="#AF413F" d="M309.168 378.299l-22.609-20.198 186.884-192.123 14.106 14.148c5.16 5.396 6.421 11.826 0 20.274L309.168 378.299z"/><path d="M475.163 446.111c-5.544 0-10.041-4.941-10.041-11.034 0-6.094 4.497-11.034 10.041-11.034h18.919c5.544 0 10.04 4.94 10.04 11.034 0 6.093-4.496 11.034-10.04 11.034h-18.919zm-173.12-38.535l-76.601 16.467h217.962c5.545 0 10.041 4.94 10.041 11.034 0 6.093-4.496 11.034-10.041 11.034h-321.28c-6.447.614-12.619-1.948-16.761-6.541l-89.724-90.179c-20.295-20.398-20.555-37.615.185-58.164l92.631-91.796c7.78-7.738 20.331-7.753 28.133-.077l177.357 173.933c7.877 7.746 7.981 20.413.235 28.29-3.734 3.794-7.341 4.969-12.137 5.999z"/><path fill="#E4E5E5" d="M299.918 387.549l-179.669 38.622-95.182-95.668c-5.677-5.677-5.677-14.598 0-20.274l97.496-96.614 177.355 173.934z"/></g></svg>